<svg width="24" height="35" viewBox="0 0 24 35" fill="none" xmlns="http://www.w3.org/2000/svg">
<g id="cyborg" clip-path="url(#clip0_533_2339)">
<g id="Group">
<path id="Vector" d="M15.5176 10.7246C15.5176 11.8021 16.1486 12.6792 16.9238 12.6792H21.1042C21.0283 11.3037 20.7988 9.98917 20.4316 8.77002H16.9238C16.1486 8.77002 15.5176 9.64712 15.5176 10.7246Z" fill="#232536"/>
<path id="Vector_2" d="M6.37695 34.3102H14.8145C15.2031 34.3102 15.5176 33.8731 15.5176 33.3329V28.3161H16.9238V21.9636L9.893 14.6338H3.56445C3.17581 14.6338 2.86133 15.0709 2.86133 15.6111C2.86133 19.0727 3.88236 22.3883 5.67383 24.7791V33.3329C5.67383 33.8731 5.98831 34.3102 6.37695 34.3102V34.3102Z" fill="#FFD050"/>
<path id="Vector_3" d="M12.002 0.95166C11.6133 0.95166 11.2988 1.38878 11.2988 1.92896V2.90627H8.35681C8.06558 1.77116 7.29242 0.95166 6.37695 0.95166C5.2138 0.95166 4.26758 2.26685 4.26758 3.88357C4.26758 5.5003 5.2138 6.81549 6.37695 6.81549C7.29242 6.81549 8.06558 5.99599 8.35681 4.86088H11.2988V8.7701H4.13806C3.84683 7.63499 3.07367 6.81549 2.1582 6.81549C0.995047 6.81549 0.00195312 8.13068 0.00195312 9.7474C0.00195312 11.3641 0.995047 12.6793 2.1582 12.6793C3.07367 12.6793 3.84683 11.8598 4.13806 10.7247H11.2988V13.6571L18.0485 20.6934C18.2257 20.8776 18.3301 21.1677 18.3301 21.4751V28.3162H19.0332C20.1964 28.3162 21.1426 27.001 21.1426 25.3843V20.4978H23.2988C23.5584 20.4978 23.7966 20.2992 23.9189 19.9814C24.0411 19.6636 24.0274 19.278 23.8839 18.9783L21.7533 14.6339H16.9238C15.3727 14.6339 14.1113 12.8807 14.1113 10.7247C14.1113 8.56871 15.3727 6.81549 16.9238 6.81549H19.6897C18.0628 3.29576 15.2291 0.95166 12.002 0.95166V0.95166Z" fill="#232536"/>
</g>
</g>
<defs>
<clipPath id="clip0_533_2339">
<rect width="24" height="33.3587" fill="white" transform="translate(0 0.95166)"/>
</clipPath>
</defs>
</svg>
