<svg width="23" height="35" viewBox="0 0 23 35" fill="none" xmlns="http://www.w3.org/2000/svg">
<g id="economy (1)" clip-path="url(#clip0_533_2312)">
<g id="Group">
<g id="Group_2">
<path id="Vector" d="M5.11557 22.3921H2.5317C1.5999 22.3921 0.841797 23.4937 0.841797 24.8477V32.8024C0.841797 33.6339 1.30738 34.3104 1.87959 34.3104H5.76759C6.33985 34.3104 6.80544 33.6339 6.80544 32.8024V24.8478C6.80544 23.4937 6.04738 22.3921 5.11557 22.3921Z" fill="#232536"/>
</g>
</g>
<g id="Group_3">
<g id="Group_4">
<path id="Vector_2" d="M12.6996 17.5601H10.1157C9.18389 17.5601 8.42578 18.6617 8.42578 20.0156V32.8016C8.42578 33.6332 8.89137 34.3097 9.46363 34.3097H13.3516C13.9239 34.3097 14.3894 33.6332 14.3894 32.8016V20.0157C14.3894 18.6616 13.6314 17.5601 12.6996 17.5601Z" fill="#232536"/>
</g>
</g>
<g id="Group_5">
<g id="Group_6">
<path id="Vector_3" d="M20.4261 12.0557H17.8423C16.9104 12.0557 16.1523 13.1573 16.1523 14.5112V32.802C16.1523 33.6336 16.6179 34.31 17.1901 34.31H21.0781C21.6504 34.31 22.1159 33.6336 22.1159 32.802V14.5112C22.116 13.1573 21.3579 12.0557 20.4261 12.0557Z" fill="#232536"/>
</g>
</g>
<g id="Group_7">
<g id="Group_8">
<path id="Vector_4" d="M18.3681 1.87958C18.052 1.23039 17.538 0.88709 16.9929 0.959802L12.1128 1.6159C11.5678 1.6892 11.1059 2.16417 10.8771 2.88653C10.6483 3.60889 10.7004 4.42781 11.0165 5.077L11.2889 5.63641L5.23176 11.7184L5.22557 11.7248C4.79576 12.1667 4.51015 12.8255 4.42133 13.5796C4.33251 14.3338 4.45106 15.093 4.75519 15.7176C5.05932 16.3421 5.51266 16.7572 6.03165 16.8863C6.1441 16.9143 6.25669 16.9281 6.36851 16.9281C6.77133 16.9281 7.1637 16.7486 7.49957 16.4048L13.5664 10.3131L13.8476 10.8905C14.1357 11.482 14.588 11.82 15.0783 11.82C15.1261 11.82 15.1743 11.8167 15.2228 11.8102C15.7677 11.7369 16.2297 11.2619 16.4585 10.5395L18.5076 4.07005C18.7364 3.34756 18.6843 2.5287 18.3681 1.87958Z" fill="#FFD050"/>
</g>
</g>
</g>
<defs>
<clipPath id="clip0_533_2312">
<rect width="22.9565" height="33.3587" fill="white" transform="translate(0 0.95166)"/>
</clipPath>
</defs>
</svg>
