<svg width="48" height="67" viewBox="0 0 48 67" fill="none" xmlns="http://www.w3.org/2000/svg">
<g id="Icon">
<path id="Vector" d="M25.0305 19.6121L14.04 17.2916C13.53 17.1811 13.0095 17.375 12.6195 17.8336C12.2295 18.3069 12 18.9866 12 19.6955V48.9823C12 49.7475 12.45 50.3729 13.0005 50.3729H16.251V43.0757C16.251 41.7268 17.031 40.6426 18.0015 40.6426H20.502C21.4725 40.6426 22.2525 41.7268 22.2525 43.0757V50.3729H26.502V22.0181C26.5005 20.8213 25.8795 19.8081 25.0305 19.6121V19.6121ZM17.5005 37.5152H16.0005C15.5865 37.5152 15.2505 37.0482 15.2505 36.4728C15.2505 35.8974 15.5865 35.4303 16.0005 35.4303H17.5005C17.9145 35.4303 18.2505 35.8974 18.2505 36.4728C18.2505 37.0482 17.9145 37.5152 17.5005 37.5152ZM17.5005 33.3454H16.0005C15.5865 33.3454 15.2505 32.8784 15.2505 32.303C15.2505 31.7275 15.5865 31.2605 16.0005 31.2605H17.5005C17.9145 31.2605 18.2505 31.7275 18.2505 32.303C18.2505 32.8784 17.9145 33.3454 17.5005 33.3454ZM17.5005 29.1756H16.0005C15.5865 29.1756 15.2505 28.7086 15.2505 28.1331C15.2505 27.5577 15.5865 27.0907 16.0005 27.0907H17.5005C17.9145 27.0907 18.2505 27.5577 18.2505 28.1331C18.2505 28.7086 17.9145 29.1756 17.5005 29.1756ZM17.5005 25.0057H16.0005C15.5865 25.0057 15.2505 24.5387 15.2505 23.9633C15.2505 23.3879 15.5865 22.9208 16.0005 22.9208H17.5005C17.9145 22.9208 18.2505 23.3879 18.2505 23.9633C18.2505 24.5387 17.9145 25.0057 17.5005 25.0057ZM22.5 37.5152H21C20.586 37.5152 20.25 37.0482 20.25 36.4728C20.25 35.8974 20.586 35.4303 21 35.4303H22.5C22.914 35.4303 23.25 35.8974 23.25 36.4728C23.25 37.0482 22.914 37.5152 22.5 37.5152ZM22.5 33.3454H21C20.586 33.3454 20.25 32.8784 20.25 32.303C20.25 31.7275 20.586 31.2605 21 31.2605H22.5C22.914 31.2605 23.25 31.7275 23.25 32.303C23.25 32.8784 22.914 33.3454 22.5 33.3454ZM22.5 29.1756H21C20.586 29.1756 20.25 28.7086 20.25 28.1331C20.25 27.5577 20.586 27.0907 21 27.0907H22.5C22.914 27.0907 23.25 27.5577 23.25 28.1331C23.25 28.7086 22.914 29.1756 22.5 29.1756ZM22.5 25.0057H21C20.586 25.0057 20.25 24.5387 20.25 23.9633C20.25 23.3879 20.586 22.9208 21 22.9208H22.5C22.914 22.9208 23.25 23.3879 23.25 23.9633C23.25 24.5387 22.914 25.0057 22.5 25.0057Z" fill="#232536"/>
<path id="Vector_2" d="M34.6205 32.0841L27.5 30.0117V50.373H34.25C35.2145 50.373 36.0005 49.2826 36.0005 47.9399V34.4609C36.0005 33.3121 35.4365 32.3343 34.6205 32.0841ZM32.2505 46.2032H30.7505C30.3365 46.2032 30.0005 45.7362 30.0005 45.1607C30.0005 44.5853 30.3365 44.1183 30.7505 44.1183H32.2505C32.6645 44.1183 33.0005 44.5853 33.0005 45.1607C33.0005 45.7362 32.6645 46.2032 32.2505 46.2032ZM32.2505 42.0333H30.7505C30.3365 42.0333 30.0005 41.5663 30.0005 40.9909C30.0005 40.4155 30.3365 39.9484 30.7505 39.9484H32.2505C32.6645 39.9484 33.0005 40.4155 33.0005 40.9909C33.0005 41.5663 32.6645 42.0333 32.2505 42.0333ZM32.2505 37.8635H30.7505C30.3365 37.8635 30.0005 37.3965 30.0005 36.8211C30.0005 36.2456 30.3365 35.7786 30.7505 35.7786H32.2505C32.6645 35.7786 33.0005 36.2456 33.0005 36.8211C33.0005 37.3965 32.6645 37.8635 32.2505 37.8635Z" fill="#FFD050"/>
</g>
</svg>
