<svg width="23" height="33" viewBox="0 0 23 33" fill="none" xmlns="http://www.w3.org/2000/svg">
<g id="shuttle" clip-path="url(#clip0_533_2350)">
<path id="Vector" d="M5.85054 9.58496L3.85792 9.79894C3.30345 9.8585 2.80963 10.2624 2.50299 10.9071L0.204943 15.7381C-0.0276155 16.227 -0.0645859 16.8388 0.105981 17.3748C0.276593 17.9107 0.627205 18.2843 1.04385 18.374L2.86834 18.7667C3.29514 15.6186 4.31683 12.4782 5.85054 9.58496V9.58496Z" fill="#FFD050"/>
<path id="Vector_2" d="M10.1836 28.9332L10.4662 31.4691C10.5307 32.0482 10.7995 32.5356 11.185 32.7726C11.3454 32.8713 11.5152 32.92 11.6842 32.92C11.9215 32.92 12.1572 32.8239 12.3626 32.6351L15.8384 29.441C16.3022 29.0147 16.5928 28.3283 16.6355 27.5577L16.7895 24.7881C14.7079 26.9199 12.4486 28.34 10.1836 28.9332V28.9332Z" fill="#FFD050"/>
<path id="Vector_3" d="M9.49658 27.175C9.55992 27.175 9.62362 27.1678 9.68718 27.153C10.6361 26.9325 11.5507 26.561 12.4232 26.0747L4.92442 15.6519C4.57457 16.8645 4.30729 18.1357 4.14863 19.4547C4.0861 19.9747 4.21156 20.5043 4.4797 20.8771L8.66387 26.6928C8.8865 27.0022 9.18698 27.175 9.49658 27.175Z" fill="#FFD050"/>
<path id="Vector_4" d="M21.1661 15.1249C23.0011 10.1939 23.069 4.98301 22.9731 2.53917C22.9403 1.70181 22.46 1.03421 21.8575 0.988572C21.5712 0.966844 21.2319 0.951172 20.8495 0.951172C18.8835 0.951172 15.7726 1.36508 12.8027 3.50028C10.4424 5.19717 7.34745 8.93355 5.52148 13.8438C5.54305 13.8672 5.56411 13.8921 5.58397 13.9197L13.6698 25.1586C13.6897 25.1862 13.7075 25.2154 13.7244 25.2454C17.2571 22.7073 19.9453 18.4055 21.1661 15.1249V15.1249ZM13.3731 7.7095C14.6866 5.88374 16.8241 5.88356 18.1377 7.7095C18.7741 8.59394 19.1245 9.76997 19.1245 11.0208C19.1245 12.2716 18.7741 13.4477 18.1377 14.3321C17.481 15.2449 16.618 15.7014 15.7554 15.7015C14.8925 15.7016 14.03 15.2451 13.3731 14.3321C12.7367 13.4477 12.3863 12.2716 12.3863 11.0208C12.3863 9.76997 12.7367 8.59394 13.3731 7.7095V7.7095Z" fill="#232536"/>
<path id="Vector_5" d="M14.3264 13.0076C15.1146 14.1031 16.3971 14.1031 17.1853 13.0076C17.5671 12.4769 17.7773 11.7713 17.7773 11.0208C17.7773 10.2703 17.5671 9.5647 17.1853 9.03404C16.7912 8.48626 16.2735 8.2124 15.7559 8.2124C15.2382 8.2124 14.7205 8.48626 14.3265 9.03404C13.9447 9.5647 13.7344 10.2703 13.7344 11.0208C13.7344 11.7713 13.9447 12.4769 14.3264 13.0076Z" fill="#232536"/>
<path id="Vector_6" d="M0.687523 27.2963C0.859978 27.2963 1.03243 27.2048 1.16396 27.0219L3.36392 23.9641C3.62708 23.5983 3.62708 23.0053 3.36392 22.6396C3.10082 22.2738 2.67415 22.2738 2.411 22.6396L0.211036 25.6974C-0.0521162 26.0632 -0.0521162 26.6561 0.211036 27.0219C0.342612 27.2048 0.515067 27.2963 0.687523 27.2963Z" fill="#FFD050"/>
<path id="Vector_7" d="M5.37991 25.4423C5.1168 25.0765 4.69014 25.0765 4.42698 25.4423L0.197364 31.3212C-0.0657881 31.687 -0.0657881 32.28 0.197364 32.6457C0.32894 32.8286 0.501395 32.92 0.673851 32.92C0.846306 32.92 1.01876 32.8286 1.15029 32.6457L5.37987 26.7668C5.64306 26.401 5.64306 25.8081 5.37991 25.4423V25.4423Z" fill="#FFD050"/>
<path id="Vector_8" d="M6.4422 28.2441L4.24229 31.3019C3.97913 31.6676 3.97913 32.2606 4.24229 32.6264C4.37386 32.8093 4.54632 32.9007 4.71873 32.9007C4.89114 32.9007 5.06364 32.8093 5.19517 32.6264L7.39513 29.5686C7.65828 29.2028 7.65828 28.6098 7.39513 28.2441C7.13202 27.8783 6.70535 27.8783 6.4422 28.2441Z" fill="#FFD050"/>
</g>
<defs>
<clipPath id="clip0_533_2350">
<rect width="23" height="31.9687" fill="white" transform="translate(0 0.951172)"/>
</clipPath>
</defs>
</svg>
